<svg t="1713167649195" class="icon" viewBox="0 0 1024 1024" version="1.1" xmlns="http://www.w3.org/2000/svg" p-id="5855" width="200" height="200"><path d="M827.169099 733.892693c3.680832-10.974959 5.679349-22.714328 5.679349-34.912138L832.848449 405.506571c0-60.681034-49.367361-110.049418-110.049418-110.049418l-67.811432 0 0-121.005958c0-60.680011-49.367361-110.048395-110.049418-110.048395l-44.188408 0c-60.681034 0-110.049418 49.367361-110.049418 110.049418l0 121.004935-73.329099 0c-60.681034 0-110.049418 49.367361-110.049418 110.049418l0 293.475008c0 12.610202 2.13871 24.728194 6.060019 36.020378-18.454304 5.132904-36.625152 14.038738-52.089355 25.871227-28.853142 22.075785-44.74304 50.65161-44.74304 80.461543l0 10.145058c0 61.385069 49.940412 111.325481 111.325481 111.325481l570.127885 0c61.385069 0 111.325481-49.940412 111.325481-111.325481l0-10.145058C909.327284 790.038434 874.451986 746.742349 827.169099 733.892693zM500.749772 104.421234l44.188408 0c25.167193 0 47.267537 13.350053 59.614749 33.334199L441.136046 137.755434C453.483258 117.770264 475.583602 104.421234 500.749772 104.421234zM544.93818 384.658753l-44.188408 0c-39.126112 0-70.030983-38.882566-70.030983-89.201601s0-117.7938 0-117.7938l184.251398 0c0 0 0 68.99949 0 117.7938S580.840878 384.658753 544.93818 384.658753zM247.340271 405.506571c0-38.614459 31.416524-70.030983 70.030983-70.030983l75.319429 0c9.770528 50.745754 54.505381 89.201601 108.060111 89.201601l44.188408 0c53.55473 0 98.28856-38.455847 108.060111-89.201601l69.800739 0c38.614459 0 70.030983 31.416524 70.030983 70.030983l0 293.475008c0 38.614459-31.416524 70.030983-70.030983 70.030983l-31.233352 0c-43.125193 0-90.926896-6.03239-109.177562-31.3101-5.353938-7.413853-6.977925-15.640212-7.14984-21.780049l114.589828 0c11.04966 0 19.866467-8.953929 19.866467-20.00359L709.695594 581.868277c0-11.04966-8.904811-20.008706-19.954471-20.008706s-19.954471 8.959046-19.954471 20.008706l0 94.145194-111.745037 0c-8.451486 0-15.989159 5.256724-18.838044 13.213953-4.998851 13.96506-8.476045 44.624337 10.19827 71.14434 2.128477 3.022847 4.472871 5.901407 7.027044 8.640798l-63.183018 0c2.549056-2.732228 4.888334-5.603625 7.012717-8.618285 18.688641-26.511817 15.244192-57.187467 10.261715-71.148433-2.842745-7.964392-10.387581-13.231349-18.845207-13.231349L380.190999 676.014494l0-94.145194c0-11.04966-9.41544-20.008706-20.466124-20.008706s-20.466124 8.959046-20.466124 20.008706l0 114.050546c0 11.04966 9.372461 20.00359 20.423145 20.00359l114.794489 0c-0.184195 6.139837-1.769296 14.071484-6.924713 21.3871-18.047028 25.601074-79.030961 31.702026-109.49888 31.702026l-40.681538 0c-19.191084 0-36.598546-7.764847-49.260937-20.310581-6.432503-6.791683-8.836249-9.67536-12.815887-17.362436-5.069459-9.686616-7.954159-20.688181-7.954159-32.357965L247.340271 405.506571zM156.567895 851.478761l0-10.145058c0-33.55114 40.497343-63.811328 77.858252-70.107731 20.189831 23.150256 49.8872 37.804001 82.945107 37.804001l280.252869 0c-1.979074 12.201903-7.060813 21.560038-15.419178 28.395724-24.709775 20.214391-73.577762 15.838733-90.312912 12.450567-5.894244-1.211595-11.897981 0.287549-16.561188 4.088108-4.662183 3.800559-7.134491 9.496282-7.134491 15.511275l0 53.311183L227.874941 922.786831C188.555423 922.785807 156.567895 890.797255 156.567895 851.478761zM869.309872 851.478761c0 39.318494-31.988552 71.307046-71.307046 71.307046L508.104273 922.785807l0-30.632671c5.116531 0.431835 12.305257 0.685615 19.412119 0.617054 33.866319-0.427742 60.616566-8.595772 79.853699-24.27487 17.801435-14.508435 28.051893-34.475186 30.578436-59.46637l84.84948 0c33.387411 0 63.345724-14.948457 83.544765-38.499849 35.400255 4.145413 62.966077 34.307364 62.966077 70.803579L869.308849 851.478761z"  p-id="5856"></path></svg>