<?xml version="1.0" standalone="no"?><!DOCTYPE svg PUBLIC "-//W3C//DTD SVG 1.1//EN" "http://www.w3.org/Graphics/SVG/1.1/DTD/svg11.dtd"><svg t="1713167395095" class="icon" viewBox="0 0 1024 1024" version="1.1" xmlns="http://www.w3.org/2000/svg" p-id="4606" xmlns:xlink="http://www.w3.org/1999/xlink" width="200" height="200"><path d="M640 896h192V469.376h42.666667V896.213333c0 23.466667-19.029333 42.474667-42.666667 42.474667H597.333333V725.333333h-170.666666v213.333334H192c-23.573333 0-42.666667-18.986667-42.666667-42.453334V469.354667h42.666667V896h192V682.666667h256v213.333333z"  p-id="4607"></path><path d="M100.032 506.133333a21.333333 21.333333 0 1 1-29.397333-30.933333L466.282667 99.349333a66.688 66.688 0 0 1 91.434666 0L953.386667 475.2a21.333333 21.333333 0 1 1-29.397334 30.933333L528.341333 130.282667a24.021333 24.021333 0 0 0-32.682666 0L100.053333 506.133333zM832 192h-128a21.333333 21.333333 0 0 1 0-42.666667h149.333333a21.333333 21.333333 0 0 1 21.333334 21.333334v149.333333a21.333333 21.333333 0 0 1-42.666667 0V192z"  p-id="4608"></path></svg>